<svg width="192" height="192" xmlns="http://www.w3.org/2000/svg">
  <!-- Row 1 -->
  <!-- Tile 0: Wall (0,0) -->
  <g transform="translate(0,0)">
    <!-- Background (mortar) -->
    <rect width="32" height="32" fill="#342e2d"/>
    <!-- Bricks -->
    <rect x="0" y="0" width="7" height="7" fill="#534847"/>
    <rect x="8" y="0" width="7" height="7" fill="#534847"/>
    <rect x="16" y="0" width="7" height="7" fill="#423837"/>
    <rect x="24" y="0" width="7" height="7" fill="#645a59"/>
    <rect x="0" y="8" width="7" height="7" fill="#645a59"/>
    <rect x="8" y="8" width="7" height="7" fill="#534847"/>
    <rect x="16" y="8" width="7" height="7" fill="#534847"/>
    <rect x="24" y="8" width="7" height="7" fill="#423837"/>
    <rect x="0" y="16" width="7" height="7" fill="#423837"/>
    <rect x="8" y="16" width="7" height="7" fill="#645a59"/>
    <rect x="16" y="16" width="7" height="7" fill="#534847"/>
    <rect x="24" y="16" width="7" height="7" fill="#534847"/>
    <rect x="0" y="24" width="7" height="7" fill="#534847"/>
    <rect x="8" y="24" width="7" height="7" fill="#423837"/>
    <rect x="16" y="24" width="7" height="7" fill="#645a59"/>
    <rect x="24" y="24" width="7" height="7" fill="#534847"/>
    <!-- Moss details -->
    <rect x="2" y="2" width="1" height="1" fill="#3a5a3a"/>
    <rect x="10" y="10" width="1" height="1" fill="#3a5a3a"/>
    <rect x="18" y="18" width="1" height="1" fill="#3a5a3a"/>
    <rect x="26" y="26" width="1" height="1" fill="#3a5a3a"/>
  </g>
  <!-- Tile 1: Floor (32,0) -->
  <g transform="translate(32,0)">
    <!-- Background -->
    <rect width="32" height="32" fill="#3a3a3a"/>
    <!-- Stones -->
    <rect x="0" y="0" width="15" height="15" fill="#5a5a5a"/>
    <rect x="16" y="0" width="15" height="15" fill="#4a4a4a"/>
    <rect x="0" y="16" width="15" height="15" fill="#4a4a4a"/>
    <rect x="16" y="16" width="15" height="15" fill="#5a5a5a"/>
    <!-- Texture details -->
    <rect x="2" y="2" width="2" height="2" fill="#6a6a6a"/>
    <rect x="18" y="2" width="2" height="2" fill="#6a6a6a"/>
    <rect x="2" y="18" width="2" height="2" fill="#6a6a6a"/>
    <rect x="18" y="18" width="2" height="2" fill="#6a6a6a"/>
  </g>
  <!-- Tile 2: Broken Wall (64,0) -->
  <g transform="translate(64,0)">
    <rect width="32" height="32" fill="#2f2f2f"/>
    <rect width="20" height="28" x="2" y="2" fill="#4a4a4a" stroke="#1a1a1a" stroke-width="1"/>
    <path d="M22 4 L28 10 L22 16" fill="#2a2a2a"/>
  </g>
  <!-- Tile 3: Torch (96,0) -->
  <g transform="translate(96,0)">
    <rect width="32" height="32" fill="#2f2f2f"/>
    <rect width="4" height="20" x="14" y="6" fill="#3f2f1f" stroke="#1a1a1a" stroke-width="1"/>
    <path d="M12 4 Q16 2 20 4" fill="#ff8c00" stroke="#ff4500" stroke-width="1"/>
  </g>
  <!-- Tile 4: Vines (128,0) -->
  <g transform="translate(128,0)">
    <rect width="32" height="32" fill="#2f2f2f"/>
    <rect width="28" height="28" x="2" y="2" fill="#4a4a4a" stroke="#1a1a1a" stroke-width="1"/>
    <path d="M4 28 Q10 20 16 28" stroke="#3a5a3a" stroke-width="2" fill="none"/>
  </g>
  <!-- Tile 5: Skull (160,0) -->
  <g transform="translate(160,0)">
    <rect width="32" height="32" fill="#3a3a3a"/>
    <ellipse cx="16" cy="14" rx="8" ry="6" fill="#d3d3d3" stroke="#a9a9a9" stroke-width="1"/>
    <circle cx="12" cy="12" r="2" fill="#2f2f2f"/>
    <circle cx="20" cy="12" r="2" fill="#2f2f2f"/>
  </g>

  <!-- Row 2 -->
  <!-- Tile 6: Chains (0,32) -->
  <g transform="translate(0,32)">
    <rect width="32" height="32" fill="#2f2f2f"/>
    <rect width="28" height="28" x="2" y="2" fill="#4a4a4a" stroke="#1a1a1a" stroke-width="1"/>
    <path d="M16 4 L16 28" stroke="#5a5a5a" stroke-width="2" fill="none"/>
    <circle cx="16" cy="10" r="2" fill="#5a5a5a"/>
  </g>
  <!-- Tile 7: Puddle (32,32) -->
  <g transform="translate(32,32)">
    <rect width="32" height="32" fill="#3a3a3a"/>
    <ellipse cx="16" cy="24" rx="10" ry="4" fill="#2f4f4f" stroke="#1a3a3a" stroke-width="1"/>
  </g>
  <!-- Tile 8: Cracked Floor (64,32) -->
  <g transform="translate(64,32)">
    <rect width="32" height="32" fill="#3a3a3a"/>
    <rect width="10" height="10" x="2" y="2" fill="#5a5a5a" stroke="#2a2a2a" stroke-width="1"/>
    <path d="M14 14 L20 20 L26 14" stroke="#4a4a4a" stroke-width="1" fill="none"/>
  </g>
  <!-- Tile 9: Mossy Wall (96,32) -->
  <g transform="translate(96,32)">
    <rect width="32" height="32" fill="#2f2f2f"/>
    <rect width="28" height="28" x="2" y="2" fill="#4a4a4a" stroke="#1a1a1a" stroke-width="1"/>
    <circle cx="4" cy="28" r="3" fill="#3a5a3a"/>
    <circle cx="28" cy="28" r="2" fill="#3a5a3a"/>
  </g>
  <!-- Tile 10: Rusty Bars (128,32) -->
  <g transform="translate(128,32)">
    <rect width="32" height="32" fill="#2f2f2f"/>
    <rect width="4" height="28" x="6" y="2" fill="#5f3f2f" stroke="#3f2f1f" stroke-width="1"/>
    <rect width="4" height="28" x="22" y="2" fill="#5f3f2f" stroke="#3f2f1f" stroke-width="1"/>
  </g>
  <!-- Tile 11: Cobweb (160,32) -->
  <g transform="translate(160,32)">
    <rect width="32" height="32" fill="#3a3a3a"/>
    <path d="M4 4 L28 28" stroke="#a9a9a9" stroke-width="1" fill="none"/>
    <path d="M4 28 L28 4" stroke="#a9a9a9" stroke-width="1" fill="none"/>
  </g>

  <!-- Row 3 -->
  <!-- Tile 12: Stone Arch (0,64) -->
  <g transform="translate(0,64)">
    <rect width="32" height="32" fill="#2f2f2f"/>
    <rect width="28" height="20" x="2" y="2" fill="#4a4a4a" stroke="#1a1a1a" stroke-width="1"/>
    <path d="M2 22 Q16 12 30 22" fill="none" stroke="#1a1a1a" stroke-width="1"/>
  </g>
  <!-- Tile 13: Broken Floor (32,64) -->
  <g transform="translate(32,64)">
    <rect width="32" height="32" fill="#3a3a3a"/>
    <rect width="20" height="20" x="2" y="2" fill="#5a5a5a" stroke="#2a2a2a" stroke-width="1"/>
    <path d="M22 22 L28 28" fill="#2a2a2a"/>
  </g>
  <!-- Tile 14: Wall with Hole (64,64) -->
  <g transform="translate(64,64)">
    <rect width="32" height="32" fill="#2f2f2f"/>
    <rect width="28" height="28" x="2" y="2" fill="#4a4a4a" stroke="#1a1a1a" stroke-width="1"/>
    <circle cx="16" cy="16" r="4" fill="#2a2a2a"/>
  </g>
  <!-- Tile 15: Candle (96,64) -->
  <g transform="translate(96,64)">
    <rect width="32" height="32" fill="#3a3a3a"/>
    <rect width="6" height="12" x="13" y="14" fill="#d3d3d3" stroke="#a9a9a9" stroke-width="1"/>
    <path d="M15 12 Q16 10 17 12" fill="#ff8c00"/>
  </g>
  <!-- Tile 16: Rusty Plate (128,64) -->
  <g transform="translate(128,64)">
    <rect width="32" height="32" fill="#3a3a3a"/>
    <rect width="20" height="4" x="6" y="14" fill="#5f3f2f" stroke="#3f2f1f" stroke-width="1"/>
  </g>
  <!-- Tile 17: Mossy Floor (160,64) -->
  <g transform="translate(160,64)">
    <rect width="32" height="32" fill="#3a3a3a"/>
    <rect width="10" height="10" x="2" y="2" fill="#5a5a5a" stroke="#2a2a2a" stroke-width="1"/>
    <circle cx="24" cy="24" r="4" fill="#3a5a3a"/>
  </g>

  <!-- Row 4 -->
  <!-- Tile 18: Wall with Rune (0,96) -->
  <g transform="translate(0,96)">
    <rect width="32" height="32" fill="#2f2f2f"/>
    <rect width="28" height="28" x="2" y="2" fill="#4a4a4a" stroke="#1a1a1a" stroke-width="1"/>
    <path d="M12 12 L20 20 M12 20 L20 12" stroke="#6a6a6a" stroke-width="1" fill="none"/>
  </g>
  <!-- Tile 19: Wet Floor (32,96) -->
  <g transform="translate(32,96)">
    <rect width="32" height="32" fill="#3a3a3a"/>
    <rect width="28" height="28" x="2" y="2" fill="#2f4f4f" stroke="#1a3a3a" stroke-width="1"/>
  </g>
  <!-- Tile 20: Broken Pillar (64,96) -->
  <g transform="translate(64,96)">
    <rect width="32" height="32" fill="#2f2f2f"/>
    <rect width="10" height="20" x="11" y="2" fill="#4a4a4a" stroke="#1a1a1a" stroke-width="1"/>
    <path d="M11 22 L21 28" fill="#2a2a2a"/>
  </g>
  <!-- Tile 21: Wall Torch (96,96) -->
  <g transform="translate(96,96)">
    <rect width="32" height="32" fill="#2f2f2f"/>
    <rect width="28" height="28" x="2" y="2" fill="#4a4a4a" stroke="#1a1a1a" stroke-width="1"/>
    <rect width="4" height="12" x="14" y="8" fill="#3f2f1f"/>
    <path d="M12 6 Q16 4 20 6" fill="#ff8c00"/>
  </g>
  <!-- Tile 22: Bone Pile (128,96) -->
  <g transform="translate(128,96)">
    <rect width="32" height="32" fill="#3a3a3a"/>
    <rect width="6" height="12" x="10" y="18" fill="#d3d3d3" stroke="#a9a9a9" stroke-width="1"/>
    <rect width="12" height="6" x="14" y="14" fill="#d3d3d3" stroke="#a9a9a9" stroke-width="1"/>
  </g>
  <!-- Tile 23: Cracked Wall (160,96) -->
  <g transform="translate(160,96)">
    <rect width="32" height="32" fill="#2f2f2f"/>
    <rect width="28" height="28" x="2" y="2" fill="#4a4a4a" stroke="#1a1a1a" stroke-width="1"/>
    <path d="M4 28 L16 16 L28 28" stroke="#6a6a6a" stroke-width="1" fill="none"/>
  </g>

  <!-- Row 5 -->
  <!-- Tile 24: Iron Gate (0,128) -->
  <g transform="translate(0,128)">
    <rect width="32" height="32" fill="#2f2f2f"/>
    <rect width="4" height="28" x="6" y="2" fill="#5a5a5a" stroke="#3a3a3a" stroke-width="1"/>
    <rect width="4" height="28" x="22" y="2" fill="#5a5a5a" stroke="#3a3a3a" stroke-width="1"/>
    <rect width="20" height="4" x="6" y="14" fill="#5a5a5a" stroke="#3a3a3a" stroke-width="1"/>
  </g>
  <!-- Tile 25: Dirty Floor (32,128) -->
  <g transform="translate(32,128)">
    <rect width="32" height="32" fill="#3a3a3a"/>
    <rect width="10" height="10" x="2" y="2" fill="#5a5a5a" stroke="#2a2a2a" stroke-width="1"/>
    <circle cx="24" cy="24" r="4" fill="#4a4a4a"/>
  </g>
  <!-- Tile 26: Wall with Vines (64,128) -->
  <g transform="translate(64,128)">
    <rect width="32" height="32" fill="#2f2f2f"/>
    <rect width="28" height="28" x="2" y="2" fill="#4a4a4a" stroke="#1a1a1a" stroke-width="1"/>
    <path d="M28 4 Q20 16 28 28" stroke="#3a5a3a" stroke-width="2" fill="none"/>
  </g>
  <!-- Tile 27: Lantern (96,128) -->
  <g transform="translate(96,128)">
    <rect width="32" height="32" fill="#3a3a3a"/>
    <rect width="8" height="12" x="12" y="12" fill="#5a5a5a" stroke="#3a3a3a" stroke-width="1"/>
    <path d="M14 10 Q16 8 18 10" fill="#ff8c00"/>
  </g>
  <!-- Tile 28: Broken Chain (128,128) -->
  <g transform="translate(128,128)">
    <rect width="32" height="32" fill="#2f2f2f"/>
    <path d="M16 4 L16 16" stroke="#5a5a5a" stroke-width="2" fill="none"/>
    <path d="M16 20 L16 28" stroke="#5a5a5a" stroke-width="2" fill="none"/>
  </g>
  <!-- Tile 29: Mossy Skull (160,128) -->
  <g transform="translate(160,128)">
    <rect width="32" height="32" fill="#3a3a3a"/>
    <ellipse cx="16" cy="14" rx="8" ry="6" fill="#d3d3d3" stroke="#a9a9a9" stroke-width="1"/>
    <circle cx="12" cy="12" r="2" fill="#2f2f2f"/>
    <circle cx="20" cy="12" r="2" fill="#2f2f2f"/>
    <circle cx="16" cy="24" r="2" fill="#3a5a3a"/>
  </g>

  <!-- Row 6 -->
  <!-- Tile 30: Wall with Crack (0,160) -->
  <g transform="translate(0,160)">
    <rect width="32" height="32" fill="#2f2f2f"/>
    <rect width="28" height="28" x="2" y="2" fill="#4a4a4a" stroke="#1a1a1a" stroke-width="1"/>
    <path d="M4 4 L16 16 L28 4" stroke="#6a6a6a" stroke-width="1" fill="none"/>
  </g>
  <!-- Tile 31: Wet Cobblestone (32,160) -->
  <g transform="translate(32,160)">
    <rect width="32" height="32" fill="#3a3a3a"/>
    <rect width="10" height="10" x="2" y="2" fill="#5a5a5a" stroke="#2a2a2a" stroke-width="1"/>
    <rect width="10" height="10" x="14" y="14" fill="#2f4f4f" stroke="#1a3a3a" stroke-width="1"/>
  </g>
  <!-- Tile 32: Wall with Blood (64,160) -->
  <g transform="translate(64,160)">
    <rect width="32" height="32" fill="#2f2f2f"/>
    <rect width="28" height="28" x="2" y="2" fill="#4a4a4a" stroke="#1a1a1a" stroke-width="1"/>
    <path d="M16 4 Q18 12 14 20" stroke="#8b0000" stroke-width="2" fill="none"/>
  </g>
  <!-- Tile 33: Broken Torch (96,160) -->
  <g transform="translate(96,160)">
    <rect width="32" height="32" fill="#2f2f2f"/>
    <rect width="4" height="12" x="14" y="6" fill="#3f2f1f" stroke="#1a1a1a" stroke-width="1"/>
    <rect width="4" height="8" x="18" y="14" fill="#3f2f1f" stroke="#1a1a1a" stroke-width="1"/>
  </g>
  <!-- Tile 34: Vine Floor (128,160) -->
  <g transform="translate(128,160)">
    <rect width="32" height="32" fill="#3a3a3a"/>
    <rect width="10" height="10" x="2" y="2" fill="#5a5a5a" stroke="#2a2a2a" stroke-width="1"/>
    <path d="M14 14 Q20 20 26 14" stroke="#3a5a3a" stroke-width="2" fill="none"/>
  </g>
  <!-- Tile 35: Ancient Rune (160,160) -->
  <g transform="translate(160,160)">
    <rect width="32" height="32" fill="#2f2f2f"/>
    <rect width="28" height="28" x="2" y="2" fill="#4a4a4a" stroke="#1a1a1a" stroke-width="1"/>
    <path d="M12 12 Q16 16 20 12 Q16 8 12 12" stroke="#6a6a6a" stroke-width="1" fill="none"/>
  </g>
</svg>